<svg width="169" height="49" viewBox="0 0 169 49" fill="none" xmlns="http://www.w3.org/2000/svg">
<g clip-path="url(#clip0_15076_7419)">
<path d="M34.2952 38.7874C28.7708 38.7874 23.5531 35.5997 21.0349 30.4653L15.5919 19.3691C13.1082 14.3049 7.58232 11.5916 2.1581 12.7718C1.07889 13.0034 0.0247014 12.1937 -0.00345199 11.0087C-0.023785 10.1191 0.640947 9.36214 1.49337 9.18167C8.48635 7.69963 15.5904 11.2067 18.7905 17.7322L24.2335 28.8283C26.431 33.3096 31.3422 35.8345 36.1783 34.9689L58.8965 30.5243C59.8694 30.3343 60.8031 30.9843 60.9892 31.9745C61.1754 32.9646 60.5388 33.9212 59.5691 34.1113L36.8243 38.5606C35.9797 38.7123 35.1335 38.7858 34.2952 38.7858V38.7874Z" fill="#5CA904"/>
<path d="M40.1999 43.9537C40.6738 46.9082 38.2088 49.4251 35.3153 48.9412C33.5635 48.6474 32.1512 47.2053 31.8634 45.4166C31.3895 42.4621 33.8545 39.9452 36.748 40.4291C38.4998 40.7229 39.9121 42.1651 40.1999 43.9537Z" fill="#5CA904"/>
<path d="M57.071 40.5533C57.5449 43.5078 55.0799 46.0247 52.1864 45.5408C50.4346 45.247 49.0223 43.8049 48.7345 42.0162C48.2606 39.0617 50.7256 36.5448 53.6191 37.0287C55.3709 37.3225 56.7832 38.7647 57.071 40.5533Z" fill="#5CA904"/>
<path d="M42.4062 12.3445C42.4062 6.52171 46.5526 1.45913 52.1301 0.264554C53.4314 -0.0133289 54.653 1.00877 54.653 2.36624C54.653 3.38515 53.946 4.24754 52.9716 4.46314C49.4321 5.24409 46.7669 8.43175 46.6996 12.2135V12.3445C46.6996 14.6298 47.6678 16.7044 49.2632 18.1752C50.8335 19.6732 52.848 20.3296 54.653 20.3296C54.8891 20.3296 55.1237 20.3296 55.3865 20.3041C58.9182 20.015 61.8243 17.3879 62.4514 13.8952H56.7785C55.6196 13.8952 54.6811 12.9354 54.6811 11.7536V11.7312C54.6811 10.5478 55.6211 9.5896 56.7785 9.5896H64.8335C65.9346 9.5896 66.8575 10.4584 66.9294 11.5811C66.945 11.8286 66.9529 12.0762 66.9529 12.3205C66.9529 13.1079 66.9263 14.8678 65.9847 17.1004C65.5139 18.2295 64.8867 19.2548 64.1266 20.1731C61.7977 22.9839 58.2926 24.6384 54.7859 24.6384H54.4449C48.636 24.5601 43.7701 20.3041 42.6706 14.8151C42.4876 14.0533 42.4344 13.2915 42.4094 12.477V12.3461L42.4062 12.3445Z" fill="#5CA904"/>
<path d="M25.6367 22.4957V2.14161C25.6367 0.958216 26.5767 0 27.7341 0H27.8296C28.9885 0 29.927 0.959813 29.927 2.14161V7.47089C29.927 8.65429 30.867 9.61251 32.0244 9.61251H40.0481C41.2071 9.61251 42.1455 8.65269 42.1455 7.47089V2.14161C42.1455 0.958216 43.0855 0 44.243 0H44.3384C45.4974 0 46.4358 0.959813 46.4358 2.14161V22.4957C46.4358 23.6791 45.4958 24.6373 44.3384 24.6373H44.243C43.084 24.6373 42.1455 23.6775 42.1455 22.4957V16.0373C42.1455 14.854 41.2055 13.8957 40.0481 13.8957H32.0244C30.8654 13.8957 29.927 14.8555 29.927 16.0373V22.4957C29.927 23.6791 28.987 24.6373 27.8296 24.6373H27.7341C26.5752 24.6373 25.6367 23.6775 25.6367 22.4957Z" fill="#5CA904"/>
<path d="M78.8238 15.4001V9.81055H80.9384V23.2384H78.8238V17.6488H73.567V23.2384H71.4727V9.81055H73.567V15.4001H78.8238Z" fill="#5CA904"/>
<path d="M91.3356 14.4834C91.869 15.0663 92.2178 15.7642 92.382 16.5787C92.5056 17.1025 92.5666 17.6407 92.5666 18.1949C92.5666 18.7491 92.5056 19.308 92.382 19.8318C92.2178 20.6319 91.869 21.3235 91.3356 21.9064V21.9287C90.7882 22.4957 90.1313 22.8678 89.3649 23.0419C88.8722 23.1728 88.3655 23.2383 87.8462 23.2383C87.3269 23.2383 86.7998 23.1728 86.3071 23.0419C85.5548 22.8678 84.9042 22.4957 84.3567 21.9287L84.3364 21.9064C83.803 21.3251 83.4543 20.6335 83.29 19.8318C83.1665 19.308 83.1055 18.7618 83.1055 18.1949C83.1055 17.6279 83.1665 17.1025 83.29 16.5787C83.4543 15.7642 83.803 15.0647 84.3364 14.4834H84.3567C84.9042 13.9164 85.5548 13.5443 86.3071 13.3703C86.7998 13.2393 87.3128 13.1738 87.8462 13.1738C88.3795 13.1738 88.8722 13.2393 89.3649 13.3703C90.1313 13.5443 90.7882 13.9164 91.3356 14.4834ZM90.3503 19.2872C90.4316 18.9375 90.4738 18.575 90.4738 18.1949C90.4738 17.8148 90.4332 17.4746 90.3503 17.1249C90.2548 16.6889 90.0906 16.3312 89.8576 16.0549C89.5979 15.8073 89.2617 15.6333 88.8519 15.531C88.5234 15.4432 88.1872 15.4001 87.8462 15.4001C87.5052 15.4001 87.1486 15.4432 86.8201 15.531C86.4229 15.6189 86.0944 15.793 85.8348 16.0549C85.6017 16.3312 85.4375 16.6873 85.3421 17.1249C85.2608 17.4746 85.2185 17.8308 85.2185 18.1949C85.2185 18.559 85.2592 18.9375 85.3421 19.2872C85.425 19.7089 85.5892 20.0586 85.8348 20.3349C86.0944 20.5968 86.4229 20.7709 86.8201 20.8587C87.1486 20.9466 87.4911 20.9897 87.8462 20.9897C88.2012 20.9897 88.5234 20.9466 88.8519 20.8587C89.2632 20.7565 89.5979 20.5824 89.8576 20.3349C90.1031 20.0586 90.2674 19.7089 90.3503 19.2872Z" fill="#5CA904"/>
<path d="M105.875 14.4834C106.408 15.0663 106.757 15.7642 106.921 16.5787C107.045 17.1025 107.106 17.6343 107.106 18.1725V23.2383H104.991V18.1725C104.991 17.8228 104.95 17.473 104.867 17.1249C104.772 16.6889 104.608 16.3312 104.375 16.0549C104.115 15.793 103.787 15.6189 103.389 15.531C103.061 15.4432 102.725 15.4001 102.384 15.4001H101.85V23.2383H99.7358V15.4001H99.2024C98.8599 15.4001 98.5252 15.4432 98.1967 15.531C97.7994 15.6189 97.471 15.793 97.2113 16.0549C96.9783 16.3312 96.8141 16.6873 96.7187 17.1249C96.6358 17.4746 96.5951 17.8244 96.5951 18.1725V23.2383H94.4805V18.1725C94.4805 17.6343 94.5415 17.1025 94.665 16.5787C94.8293 15.7642 95.178 15.0647 95.713 14.4834H95.7333C96.2807 13.9164 96.9314 13.5443 97.6837 13.3703C98.1764 13.2393 98.6831 13.1738 99.2024 13.1738H102.385C102.905 13.1738 103.411 13.2393 103.904 13.3703C104.656 13.5443 105.307 13.9164 105.854 14.4834H105.875Z" fill="#5CA904"/>
<path d="M117.374 14.4834C117.907 15.0663 118.256 15.7642 118.422 16.5787C118.545 17.1025 118.606 17.6343 118.606 18.1725V19.308H111.379C111.462 19.7153 111.626 20.0586 111.871 20.3349C112.131 20.5968 112.46 20.7709 112.857 20.8587C113.185 20.9466 113.52 20.9897 113.863 20.9897H117.558V23.2383H113.863C113.342 23.2383 112.837 23.1728 112.344 23.0419C111.592 22.8678 110.941 22.4957 110.393 21.9287L110.373 21.9064C109.84 21.3251 109.491 20.6335 109.325 19.8318C109.202 19.308 109.141 18.7618 109.141 18.1949C109.141 17.6279 109.202 17.1025 109.325 16.5787C109.489 15.7642 109.838 15.0647 110.373 14.4834H110.393C110.941 13.9164 111.592 13.5443 112.344 13.3703C112.837 13.2393 113.35 13.1738 113.884 13.1738C114.419 13.1738 114.91 13.2393 115.403 13.3703C116.17 13.5443 116.826 13.9164 117.374 14.4834ZM111.379 17.0818H116.368C116.285 16.6601 116.129 16.3168 115.896 16.0549C115.636 15.8073 115.3 15.6333 114.89 15.531C114.562 15.4432 114.225 15.4001 113.884 15.4001C113.543 15.4001 113.187 15.4432 112.858 15.531C112.461 15.6189 112.133 15.793 111.873 16.0549C111.626 16.3312 111.463 16.6745 111.38 17.0818H111.379Z" fill="#5CA904"/>
<path d="M129.399 17.6488V15.4001H134.921V19.6147C134.921 19.9932 134.881 20.3717 134.798 20.7502C134.674 21.3171 134.421 21.8202 134.038 22.2562L134.017 22.2785C133.606 22.6858 133.127 22.9557 132.58 23.0866C132.168 23.1888 131.813 23.24 131.512 23.24H130.177C129.657 23.24 129.151 23.1745 128.659 23.0435C127.906 22.8694 127.256 22.4973 126.708 21.9304L126.688 21.908C126.155 21.3267 125.806 20.6352 125.642 19.8335C125.518 19.3097 125.457 18.7715 125.457 18.2173V14.8332C125.457 14.2806 125.518 13.7408 125.642 13.217C125.806 12.4169 126.155 11.7254 126.688 11.1425L126.708 11.1201C127.256 10.5532 127.906 10.1811 128.659 10.007C129.151 9.87602 129.658 9.81055 130.177 9.81055H133.873V12.0592H130.177C129.835 12.0592 129.5 12.1023 129.172 12.1901C128.774 12.278 128.446 12.452 128.186 12.7139C127.939 12.9902 127.777 13.34 127.694 13.7616C127.611 14.1113 127.57 14.4675 127.57 14.8316V18.2157C127.57 18.5798 127.611 18.936 127.694 19.2857C127.777 19.7073 127.939 20.0571 128.186 20.3334C128.446 20.5953 128.774 20.7694 129.172 20.8572C129.5 20.945 129.835 20.9881 130.177 20.9881H131.512C131.69 20.9881 131.874 20.9658 132.065 20.9227C132.256 20.8652 132.414 20.7837 132.538 20.6831C132.647 20.5522 132.722 20.3925 132.764 20.2024C132.805 20.014 132.825 19.8175 132.825 19.6131V17.6488H129.397H129.399Z" fill="#670066"/>
<path d="M140.164 13.3703C140.657 13.2393 141.164 13.1738 141.683 13.1738H142.751V15.4017H141.683C141.34 15.4017 141.006 15.4448 140.677 15.5326C140.28 15.6205 139.951 15.7946 139.692 16.0565C139.459 16.3327 139.295 16.6889 139.199 17.1265C139.118 17.4762 139.076 17.826 139.076 18.1741V23.2399H136.961V18.1741C136.961 17.6359 137.022 17.1041 137.146 16.5803C137.31 15.7658 137.659 15.0663 138.193 14.485H138.214C138.761 13.918 139.412 13.5459 140.164 13.3719V13.3703Z" fill="#670066"/>
<path d="M152.878 14.4834C153.411 15.0663 153.76 15.7642 153.926 16.5787C154.049 17.1025 154.11 17.6407 154.11 18.1949C154.11 18.7491 154.049 19.308 153.926 19.8318C153.762 20.6319 153.413 21.3235 152.878 21.9064V21.9287C152.33 22.4957 151.673 22.8678 150.907 23.0419C150.414 23.1728 149.908 23.2383 149.388 23.2383C148.869 23.2383 148.34 23.1728 147.848 23.0419C147.095 22.8678 146.445 22.4957 145.897 21.9287L145.877 21.9064C145.344 21.3251 144.995 20.6335 144.829 19.8318C144.706 19.308 144.645 18.7618 144.645 18.1949C144.645 17.6279 144.706 17.1025 144.829 16.5787C144.993 15.7642 145.342 15.0647 145.877 14.4834H145.897C146.445 13.9164 147.095 13.5443 147.848 13.3703C148.34 13.2393 148.853 13.1738 149.388 13.1738C149.923 13.1738 150.414 13.2393 150.907 13.3703C151.673 13.5443 152.33 13.9164 152.878 14.4834ZM151.892 19.2872C151.975 18.9375 152.016 18.575 152.016 18.1949C152.016 17.8148 151.975 17.4746 151.892 17.1249C151.797 16.6889 151.633 16.3312 151.4 16.0549C151.14 15.8073 150.804 15.6333 150.394 15.531C150.066 15.4432 149.729 15.4001 149.388 15.4001C149.047 15.4001 148.691 15.4432 148.362 15.531C147.965 15.6189 147.637 15.793 147.377 16.0549C147.144 16.3312 146.98 16.6873 146.884 17.1249C146.801 17.4746 146.761 17.8308 146.761 18.1949C146.761 18.559 146.801 18.9375 146.884 19.2872C146.967 19.7089 147.131 20.0586 147.377 20.3349C147.637 20.5968 147.965 20.7709 148.362 20.8587C148.691 20.9466 149.033 20.9897 149.388 20.9897C149.743 20.9897 150.066 20.9466 150.394 20.8587C150.804 20.7565 151.14 20.5824 151.4 20.3349C151.647 20.0586 151.811 19.7089 151.892 19.2872Z" fill="#670066"/>
<path d="M157.272 21.928L157.252 21.9057C156.719 21.3243 156.37 20.6328 156.204 19.8311C156.081 19.3073 156.02 18.7691 156.02 18.2149V13.1715H158.134V18.2149C158.134 18.5791 158.175 18.9352 158.258 19.2849C158.341 19.7066 158.505 20.0563 158.75 20.3326C159.01 20.5945 159.339 20.7686 159.736 20.8564C160.064 20.9443 160.399 20.9874 160.741 20.9874H161.275V13.1699H163.389V20.9874H163.923C164.265 20.9874 164.6 20.9443 164.929 20.8564C165.326 20.7686 165.654 20.5945 165.914 20.3326C166.161 20.0563 166.325 19.7066 166.407 19.2849C166.488 18.9352 166.53 18.5791 166.53 18.2149V13.1715H168.645V18.2149C168.645 18.7675 168.584 19.3073 168.46 19.8311C168.296 20.6312 167.947 21.3227 167.414 21.9057L167.393 21.928C166.846 22.495 166.195 22.8671 165.443 23.0411C164.95 23.1721 164.444 23.2376 163.924 23.2376H160.741C160.221 23.2376 159.715 23.1721 159.223 23.0411C158.47 22.8671 157.82 22.495 157.272 21.928Z" fill="#670066"/>
<path d="M168.638 28.2441H71.4844V37.3057H168.638V28.2441Z" fill="#670066"/>
<path d="M76.9688 31.1436H77.5584V34.6203H76.9688V31.1436ZM77.2159 31.1436H79.2758V31.6913H77.2159V31.1436ZM77.2159 32.6527H79.0052V33.1973H77.2159V32.6527Z" fill="white"/>
<path d="M81.9648 31.1412H82.5545V34.6212H81.9648V31.1412ZM82.2088 32.6377H83.4445C83.5274 32.6377 83.5993 32.6185 83.6634 32.5786C83.7276 32.5386 83.776 32.4843 83.8105 32.4125C83.8449 32.3406 83.8636 32.2576 83.8652 32.1617C83.8652 32.0675 83.848 31.9845 83.8136 31.9126C83.7792 31.8407 83.7307 31.7848 83.6666 31.7465C83.6024 31.7082 83.5289 31.6874 83.446 31.6874H82.2104V31.1396H83.4632C83.665 31.1396 83.8433 31.1812 83.9966 31.2658C84.1499 31.3505 84.2687 31.4702 84.3532 31.6251C84.4377 31.7801 84.4799 31.9589 84.4799 32.1601C84.4799 32.3614 84.4377 32.5434 84.3532 32.6983C84.2687 32.8533 84.1499 32.973 83.995 33.0577C83.8417 33.1423 83.6634 33.1838 83.4632 33.1838H82.2104V32.6361L82.2088 32.6377ZM83.0753 33.0768L83.6869 32.9666L84.63 34.6196H83.9215L83.0753 33.0768Z" fill="white"/>
<path d="M87.8201 34.4967C87.6262 34.3913 87.476 34.2411 87.3681 34.0479C87.2602 33.8547 87.207 33.6295 87.207 33.3756V32.3902C87.207 32.1347 87.2602 31.9111 87.3681 31.7178C87.4745 31.5246 87.6262 31.3745 87.8201 31.2691C88.0141 31.1637 88.2393 31.1094 88.4943 31.1094C88.7492 31.1094 88.9744 31.1621 89.1684 31.2691C89.3623 31.3745 89.5125 31.5246 89.6204 31.7178C89.7268 31.9111 89.7815 32.1363 89.7815 32.3902V33.3756C89.7815 33.6311 89.7283 33.8547 89.6204 34.0479C89.5125 34.2411 89.3623 34.3913 89.1684 34.4967C88.9744 34.6021 88.7492 34.6564 88.4943 34.6564C88.2393 34.6564 88.0141 34.6037 87.8201 34.4967ZM88.8509 34.0032C88.9541 33.9457 89.0339 33.8642 89.0886 33.7588C89.1449 33.6534 89.1731 33.5305 89.1731 33.3915V32.3726C89.1731 32.2337 89.1449 32.1123 89.0886 32.0053C89.0323 31.8999 88.9525 31.8169 88.8509 31.761C88.7492 31.7051 88.6288 31.6747 88.4943 31.6747C88.3598 31.6747 88.2409 31.7035 88.1377 31.761C88.0344 31.8185 87.9547 31.8999 87.8999 32.0053C87.8436 32.1107 87.8154 32.2337 87.8154 32.3726V33.3915C87.8154 33.5305 87.8436 33.6518 87.8999 33.7588C87.9562 33.8642 88.036 33.9473 88.1377 34.0032C88.2409 34.0607 88.3598 34.0894 88.4943 34.0894C88.6288 34.0894 88.7476 34.0607 88.8509 34.0032Z" fill="white"/>
<path d="M95.0392 31.1436H95.7195V34.6203H95.1674V31.9692L95.1924 32.1225L94.4073 34.1859H93.9334L93.1482 32.1704L93.1732 31.9692V34.6203H92.6211V31.1436H93.3015L94.1695 33.4624L95.0376 31.1436H95.0392Z" fill="white"/>
<path d="M102.695 34.4967C102.501 34.3913 102.351 34.2411 102.243 34.0479C102.135 33.8547 102.082 33.6295 102.082 33.3756V32.3902C102.082 32.1347 102.135 31.9111 102.243 31.7178C102.349 31.5246 102.501 31.3745 102.695 31.2691C102.889 31.1637 103.114 31.1094 103.369 31.1094C103.624 31.1094 103.849 31.1621 104.043 31.2691C104.237 31.3745 104.387 31.5246 104.495 31.7178C104.602 31.9111 104.657 32.1363 104.657 32.3902V33.3756C104.657 33.6311 104.603 33.8547 104.495 34.0479C104.387 34.2411 104.237 34.3913 104.043 34.4967C103.849 34.6021 103.624 34.6564 103.369 34.6564C103.114 34.6564 102.889 34.6037 102.695 34.4967ZM103.726 34.0032C103.829 33.9457 103.909 33.8642 103.964 33.7588C104.02 33.6534 104.048 33.5305 104.048 33.3915V32.3726C104.048 32.2337 104.02 32.1123 103.964 32.0053C103.907 31.8999 103.828 31.8169 103.726 31.761C103.624 31.7051 103.504 31.6747 103.369 31.6747C103.235 31.6747 103.116 31.7035 103.013 31.761C102.909 31.8185 102.83 31.8999 102.775 32.0053C102.719 32.1107 102.69 32.2337 102.69 32.3726V33.3915C102.69 33.5305 102.719 33.6518 102.775 33.7588C102.831 33.8642 102.911 33.9473 103.013 34.0032C103.116 34.0607 103.235 34.0894 103.369 34.0894C103.504 34.0894 103.623 34.0607 103.726 34.0032Z" fill="white"/>
<path d="M107.984 34.5053C107.792 34.4047 107.645 34.2562 107.545 34.0629C107.445 33.8697 107.395 33.6365 107.395 33.3634V31.1436H107.984V33.3794C107.984 33.6062 108.045 33.7818 108.166 33.9048C108.286 34.0294 108.457 34.0917 108.677 34.0917C108.898 34.0917 109.071 34.0294 109.193 33.9048C109.315 33.7802 109.376 33.6046 109.376 33.3794V31.1436H109.966V33.3634C109.966 33.6365 109.916 33.8697 109.814 34.0629C109.712 34.2562 109.567 34.4047 109.373 34.5053C109.181 34.6059 108.949 34.657 108.677 34.657C108.405 34.657 108.177 34.6059 107.984 34.5053Z" fill="white"/>
<path d="M112.828 31.1412H113.418V34.6212H112.828V31.1412ZM113.072 32.6377H114.308C114.391 32.6377 114.463 32.6185 114.527 32.5786C114.591 32.5386 114.639 32.4843 114.674 32.4125C114.708 32.3406 114.727 32.2576 114.728 32.1617C114.728 32.0675 114.711 31.9845 114.677 31.9126C114.642 31.8407 114.594 31.7848 114.53 31.7465C114.466 31.7082 114.392 31.6874 114.309 31.6874H113.074V31.1396H114.327C114.528 31.1396 114.707 31.1812 114.86 31.2658C115.013 31.3505 115.132 31.4702 115.216 31.6251C115.301 31.7801 115.343 31.9589 115.343 32.1601C115.343 32.3614 115.301 32.5434 115.216 32.6983C115.132 32.8533 115.013 32.973 114.858 33.0577C114.705 33.1423 114.527 33.1838 114.327 33.1838H113.074V32.6361L113.072 32.6377ZM113.939 33.0768L114.55 32.9666L115.493 34.6196H114.785L113.939 33.0768Z" fill="white"/>
<path d="M118.751 34.6071C118.593 34.5752 118.443 34.5257 118.304 34.4618C118.164 34.3979 118.038 34.3197 117.922 34.2254L118.235 33.7687C118.372 33.8821 118.529 33.9683 118.699 34.0258C118.871 34.0833 119.053 34.1136 119.247 34.1136C119.488 34.1136 119.674 34.0721 119.805 33.9891C119.938 33.906 120.004 33.7895 120.004 33.6377V33.6345C120.004 33.5275 119.974 33.4429 119.915 33.3806C119.855 33.3183 119.778 33.272 119.683 33.2417C119.588 33.2113 119.466 33.1842 119.315 33.1586C119.311 33.1586 119.306 33.1554 119.301 33.1554C119.297 33.1554 119.292 33.1554 119.287 33.1522L119.244 33.1458C119.003 33.1075 118.806 33.0628 118.651 33.0101C118.496 32.9574 118.365 32.8632 118.257 32.7274C118.149 32.5917 118.094 32.4 118.094 32.1509V32.1477C118.094 31.9273 118.146 31.7389 118.247 31.584C118.349 31.4274 118.497 31.3093 118.691 31.2278C118.885 31.1464 119.118 31.1064 119.392 31.1064C119.52 31.1064 119.649 31.1208 119.778 31.148C119.908 31.1751 120.033 31.2166 120.159 31.2693C120.282 31.322 120.403 31.3891 120.52 31.469L120.234 31.9401C120.096 31.8443 119.955 31.7724 119.811 31.7229C119.667 31.6734 119.528 31.6494 119.392 31.6494C119.165 31.6494 118.99 31.6894 118.865 31.7708C118.741 31.8507 118.679 31.9656 118.679 32.111C118.679 32.2228 118.712 32.3106 118.776 32.3745C118.84 32.4384 118.92 32.4847 119.017 32.515C119.114 32.5454 119.247 32.5757 119.42 32.6092C119.427 32.6108 119.433 32.6124 119.439 32.6124C119.445 32.6124 119.452 32.614 119.458 32.6156C119.466 32.6172 119.475 32.6188 119.484 32.6204C119.494 32.622 119.503 32.6236 119.511 32.6252C119.733 32.6683 119.919 32.7194 120.068 32.7801C120.216 32.8408 120.342 32.9382 120.442 33.0724C120.542 33.2065 120.592 33.3886 120.592 33.6202V33.625C120.592 33.8422 120.539 34.0274 120.434 34.1823C120.329 34.3372 120.176 34.4538 119.976 34.5353C119.775 34.6151 119.533 34.6566 119.25 34.6566C119.078 34.6566 118.912 34.6407 118.752 34.6071H118.751Z" fill="white"/>
<path d="M126.363 31.1436H128.944V31.6913H126.363V31.1436ZM127.36 31.4278H127.946V34.6203H127.36V31.4278Z" fill="white"/>
<path d="M131.953 34.4967C131.759 34.3913 131.609 34.2411 131.501 34.0479C131.393 33.8547 131.34 33.6295 131.34 33.3756V32.3902C131.34 32.1347 131.393 31.9111 131.501 31.7178C131.607 31.5246 131.759 31.3745 131.953 31.2691C132.147 31.1637 132.372 31.1094 132.627 31.1094C132.882 31.1094 133.107 31.1621 133.301 31.2691C133.495 31.3745 133.645 31.5246 133.753 31.7178C133.86 31.9111 133.914 32.1363 133.914 32.3902V33.3756C133.914 33.6311 133.861 33.8547 133.753 34.0479C133.645 34.2411 133.495 34.3913 133.301 34.4967C133.107 34.6021 132.882 34.6564 132.627 34.6564C132.372 34.6564 132.147 34.6037 131.953 34.4967ZM132.984 34.0032C133.087 33.9457 133.167 33.8642 133.221 33.7588C133.278 33.6534 133.306 33.5305 133.306 33.3915V32.3726C133.306 32.2337 133.278 32.1123 133.221 32.0053C133.165 31.8999 133.085 31.8169 132.984 31.761C132.882 31.7051 132.762 31.6747 132.627 31.6747C132.493 31.6747 132.374 31.7035 132.27 31.761C132.167 31.8185 132.087 31.8999 132.033 32.0053C131.976 32.1107 131.948 32.2337 131.948 32.3726V33.3915C131.948 33.5305 131.976 33.6518 132.033 33.7588C132.089 33.8642 132.169 33.9473 132.27 34.0032C132.374 34.0607 132.493 34.0894 132.627 34.0894C132.762 34.0894 132.88 34.0607 132.984 34.0032Z" fill="white"/>
<path d="M141.424 33.2436V34.6203H140.838V33.2436L139.762 31.1436H140.395L141.13 32.6767L141.865 31.1436H142.499L141.423 33.2436H141.424Z" fill="white"/>
<path d="M145.433 34.4967C145.239 34.3913 145.089 34.2411 144.981 34.0479C144.873 33.8547 144.82 33.6295 144.82 33.3756V32.3902C144.82 32.1347 144.873 31.9111 144.981 31.7178C145.088 31.5246 145.239 31.3745 145.433 31.2691C145.627 31.1637 145.853 31.1094 146.108 31.1094C146.362 31.1094 146.588 31.1621 146.782 31.2691C146.976 31.3745 147.126 31.5246 147.234 31.7178C147.34 31.9111 147.395 32.1363 147.395 32.3902V33.3756C147.395 33.6311 147.342 33.8547 147.234 34.0479C147.126 34.2411 146.976 34.3913 146.782 34.4967C146.588 34.6021 146.362 34.6564 146.108 34.6564C145.853 34.6564 145.627 34.6037 145.433 34.4967ZM146.464 34.0032C146.567 33.9457 146.647 33.8642 146.702 33.7588C146.758 33.6534 146.786 33.5305 146.786 33.3915V32.3726C146.786 32.2337 146.758 32.1123 146.702 32.0053C146.646 31.8999 146.566 31.8169 146.464 31.761C146.362 31.7051 146.242 31.6747 146.108 31.6747C145.973 31.6747 145.854 31.7035 145.751 31.761C145.648 31.8185 145.568 31.8999 145.513 32.0053C145.457 32.1107 145.429 32.2337 145.429 32.3726V33.3915C145.429 33.5305 145.457 33.6518 145.513 33.7588C145.57 33.8642 145.649 33.9473 145.751 34.0032C145.854 34.0607 145.973 34.0894 146.108 34.0894C146.242 34.0894 146.361 34.0607 146.464 34.0032Z" fill="white"/>
<path d="M150.719 34.5053C150.526 34.4047 150.379 34.2562 150.279 34.0629C150.179 33.8697 150.129 33.6365 150.129 33.3634V31.1436H150.719V33.3794C150.719 33.6062 150.78 33.7818 150.9 33.9048C151.02 34.0294 151.191 34.0917 151.411 34.0917C151.632 34.0917 151.806 34.0294 151.928 33.9048C152.05 33.7802 152.111 33.6046 152.111 33.3794V31.1436H152.7V33.3634C152.7 33.6365 152.65 33.8697 152.549 34.0629C152.447 34.2562 152.301 34.4047 152.107 34.5053C151.915 34.6059 151.684 34.657 151.411 34.657C151.139 34.657 150.911 34.6059 150.719 34.5053Z" fill="white"/>
<path d="M155.566 31.1412H156.156V34.6212H155.566V31.1412ZM155.81 32.6377H157.046C157.129 32.6377 157.201 32.6185 157.265 32.5786C157.329 32.5386 157.378 32.4843 157.412 32.4125C157.446 32.3406 157.465 32.2576 157.467 32.1617C157.467 32.0675 157.45 31.9845 157.415 31.9126C157.381 31.8407 157.332 31.7848 157.268 31.7465C157.204 31.7082 157.13 31.6874 157.048 31.6874H155.812V31.1396H157.065C157.267 31.1396 157.445 31.1812 157.598 31.2658C157.751 31.3505 157.87 31.4702 157.955 31.6251C158.039 31.7801 158.081 31.9589 158.081 32.1601C158.081 32.3614 158.039 32.5434 157.955 32.6983C157.87 32.8533 157.751 32.973 157.597 33.0577C157.443 33.1423 157.265 33.1838 157.065 33.1838H155.812V32.6361L155.81 32.6377ZM156.677 33.0768L157.288 32.9666L158.232 34.6196H157.523L156.677 33.0768Z" fill="white"/>
<path d="M161.493 34.6071C161.335 34.5752 161.185 34.5257 161.046 34.4618C160.907 34.3979 160.78 34.3197 160.664 34.2254L160.977 33.7687C161.115 33.8821 161.271 33.9683 161.441 34.0258C161.613 34.0833 161.795 34.1136 161.989 34.1136C162.23 34.1136 162.416 34.0721 162.547 33.9891C162.68 33.906 162.746 33.7895 162.746 33.6377V33.6345C162.746 33.5275 162.716 33.4429 162.657 33.3806C162.597 33.3183 162.521 33.272 162.425 33.2417C162.33 33.2113 162.208 33.1842 162.058 33.1586C162.053 33.1586 162.048 33.1554 162.044 33.1554C162.039 33.1554 162.034 33.1554 162.029 33.1522L161.986 33.1458C161.745 33.1075 161.548 33.0628 161.393 33.0101C161.238 32.9574 161.107 32.8632 160.999 32.7274C160.891 32.5917 160.836 32.4 160.836 32.1509V32.1477C160.836 31.9273 160.888 31.7389 160.989 31.584C161.091 31.4274 161.24 31.3093 161.434 31.2278C161.628 31.1464 161.861 31.1064 162.134 31.1064C162.263 31.1064 162.391 31.1208 162.521 31.148C162.65 31.1751 162.776 31.2166 162.901 31.2693C163.024 31.322 163.145 31.3891 163.262 31.469L162.976 31.9401C162.838 31.8443 162.697 31.7724 162.553 31.7229C162.41 31.6734 162.27 31.6494 162.134 31.6494C161.908 31.6494 161.732 31.6894 161.607 31.7708C161.484 31.8507 161.421 31.9656 161.421 32.111C161.421 32.2228 161.454 32.3106 161.518 32.3745C161.582 32.4384 161.662 32.4847 161.759 32.515C161.856 32.5454 161.989 32.5757 162.162 32.6092C162.169 32.6108 162.175 32.6124 162.181 32.6124C162.187 32.6124 162.194 32.614 162.2 32.6156C162.208 32.6172 162.217 32.6188 162.227 32.6204C162.236 32.622 162.245 32.6236 162.253 32.6252C162.475 32.6683 162.661 32.7194 162.81 32.7801C162.959 32.8408 163.084 32.9382 163.184 33.0724C163.284 33.2065 163.334 33.3886 163.334 33.6202V33.625C163.334 33.8422 163.281 34.0274 163.176 34.1823C163.071 34.3372 162.918 34.4538 162.718 34.5353C162.517 34.6151 162.275 34.6566 161.992 34.6566C161.82 34.6566 161.654 34.6407 161.495 34.6071H161.493Z" fill="white"/>
</g>
<defs>
<clipPath id="clip0_15076_7419">
<rect width="168.651" height="49" fill="white"/>
</clipPath>
</defs>
</svg>
